<svg width="28" height="28" viewBox="0 0 28 28" fill="none" xmlns="http://www.w3.org/2000/svg">
<g clip-path="url(#clip0_2_14)">
<g filter="url(#filter0_d_2_14)">
<path d="M6.41669 25.6667C5.95002 25.6667 5.54169 25.4917 5.19169 25.1417C4.84169 24.7917 4.66669 24.3833 4.66669 23.9167V8.75001C4.66669 8.28334 4.84169 7.87501 5.19169 7.52501C5.54169 7.17501 5.95002 7.00001 6.41669 7.00001H9.62502V6.70834C9.62502 5.48334 10.0479 4.44793 10.8938 3.60209C11.7396 2.75626 12.775 2.33334 14 2.33334C15.225 2.33334 16.2604 2.75626 17.1063 3.60209C17.9521 4.44793 18.375 5.48334 18.375 6.70834V7.00001H21.5834C22.05 7.00001 22.4584 7.17501 22.8084 7.52501C23.1584 7.87501 23.3334 8.28334 23.3334 8.75001V23.9167C23.3334 24.3833 23.1584 24.7917 22.8084 25.1417C22.4584 25.4917 22.05 25.6667 21.5834 25.6667H6.41669ZM6.41669 23.9167H21.5834V8.75001H18.375V11.375C18.375 11.6278 18.2924 11.8368 18.1271 12.0021C17.9618 12.1674 17.7528 12.25 17.5 12.25C17.2472 12.25 17.0382 12.1674 16.8729 12.0021C16.7077 11.8368 16.625 11.6278 16.625 11.375V8.75001H11.375V11.375C11.375 11.6278 11.2924 11.8368 11.1271 12.0021C10.9618 12.1674 10.7528 12.25 10.5 12.25C10.2472 12.25 10.0382 12.1674 9.87294 12.0021C9.70766 11.8368 9.62502 11.6278 9.62502 11.375V8.75001H6.41669V23.9167ZM11.375 7.00001H16.625V6.70834C16.625 5.96945 16.3722 5.34723 15.8667 4.84168C15.3611 4.33612 14.7389 4.08334 14 4.08334C13.2611 4.08334 12.6389 4.33612 12.1334 4.84168C11.6278 5.34723 11.375 5.96945 11.375 6.70834V7.00001Z" fill="black"/>
</g>
</g>
<defs>
<filter id="filter0_d_2_14" x="0.666687" y="2.33334" width="26.6667" height="31.3333" filterUnits="userSpaceOnUse" color-interpolation-filters="sRGB">
<feFlood flood-opacity="0" result="BackgroundImageFix"/>
<feColorMatrix in="SourceAlpha" type="matrix" values="0 0 0 0 0 0 0 0 0 0 0 0 0 0 0 0 0 0 127 0" result="hardAlpha"/>
<feOffset dy="4"/>
<feGaussianBlur stdDeviation="2"/>
<feComposite in2="hardAlpha" operator="out"/>
<feColorMatrix type="matrix" values="0 0 0 0 0 0 0 0 0 0 0 0 0 0 0 0 0 0 0.25 0"/>
<feBlend mode="normal" in2="BackgroundImageFix" result="effect1_dropShadow_2_14"/>
<feBlend mode="normal" in="SourceGraphic" in2="effect1_dropShadow_2_14" result="shape"/>
</filter>
<clipPath id="clip0_2_14">
<rect width="28" height="28" fill="white"/>
</clipPath>
</defs>
</svg>
